<svg width="24" height="24" viewBox="0 0 24 24" fill="#616161" xmlns="http://www.w3.org/2000/svg">
<path d="M12 1C9.61386 1.00265 7.32622 1.95171 5.63896 3.63896C3.95171 5.32622 3.00265 7.61386 3 10V22C3 22.2099 3.06604 22.4144 3.18876 22.5847C3.31148 22.755 3.48466 22.8823 3.68377 22.9487C3.88288 23.0151 4.09783 23.0171 4.29817 22.9545C4.4985 22.8919 4.67407 22.7679 4.8 22.6L6.829 19.9L8.105 22.452C8.18084 22.6057 8.2949 22.7373 8.43623 22.8342C8.57756 22.9311 8.74141 22.99 8.91208 23.0054C9.08275 23.0207 9.2545 22.992 9.41086 22.9219C9.56722 22.8518 9.70294 22.7426 9.805 22.605L12 19.667L14.2 22.6C14.3021 22.7376 14.4378 22.8468 14.5941 22.9169C14.7505 22.987 14.9223 23.0157 15.0929 23.0004C15.2636 22.985 15.4274 22.9261 15.5688 22.8292C15.7101 22.7323 15.8242 22.6007 15.9 22.447L17.171 19.9L19.2 22.6C19.2931 22.7242 19.4139 22.825 19.5528 22.8944C19.6916 22.9639 19.8448 23 20 23C20.2652 23 20.5196 22.8946 20.7071 22.7071C20.8946 22.5196 21 22.2652 21 22V10C20.9974 7.61386 20.0483 5.32622 18.361 3.63896C16.6738 1.95171 14.3861 1.00265 12 1ZM19 19L17.8 17.4C17.6988 17.2622 17.5636 17.153 17.4076 17.0829C17.2517 17.0128 17.0803 16.9842 16.91 17C16.741 17.0161 16.5789 17.0749 16.439 17.171C16.299 17.267 16.1858 17.3971 16.11 17.549L14.834 20.101L12.8 17.4C12.7069 17.2758 12.5861 17.175 12.4472 17.1056C12.3084 17.0361 12.1552 17 12 17C11.8448 17 11.6916 17.0361 11.5528 17.1056C11.4139 17.175 11.2931 17.2758 11.2 17.4L9.171 20.105L7.9 17.553C7.82385 17.399 7.70932 17.2672 7.56745 17.1704C7.42558 17.0735 7.26114 17.0148 7.09 17C6.91973 16.984 6.74822 17.0125 6.59224 17.0826C6.43625 17.1527 6.3011 17.2621 6.2 17.4L5 19V10C5 8.14348 5.7375 6.36301 7.05025 5.05025C8.36301 3.7375 10.1435 3 12 3C13.8565 3 15.637 3.7375 16.9497 5.05025C18.2625 6.36301 19 8.14348 19 10V19ZM10 10V12C10 12.2652 9.89464 12.5196 9.70711 12.7071C9.51957 12.8946 9.26522 13 9 13C8.73478 13 8.48043 12.8946 8.29289 12.7071C8.10536 12.5196 8 12.2652 8 12V10C8 9.73478 8.10536 9.48043 8.29289 9.29289C8.48043 9.10536 8.73478 9 9 9C9.26522 9 9.51957 9.10536 9.70711 9.29289C9.89464 9.48043 10 9.73478 10 10ZM16 10V12C16 12.2652 15.8946 12.5196 15.7071 12.7071C15.5196 12.8946 15.2652 13 15 13C14.7348 13 14.4804 12.8946 14.2929 12.7071C14.1054 12.5196 14 12.2652 14 12V10C14 9.73478 14.1054 9.48043 14.2929 9.29289C14.4804 9.10536 14.7348 9 15 9C15.2652 9 15.5196 9.10536 15.7071 9.29289C15.8946 9.48043 16 9.73478 16 10Z"/>
</svg>
