<svg width="30" height="38" viewBox="0 0 30 38" fill="none" xmlns="http://www.w3.org/2000/svg">
<path d="M1.66667 37.3333C2.10869 37.3333 2.53262 37.1577 2.84518 36.8452C3.15774 36.5326 3.33333 36.1087 3.33333 35.6667V27.3333H8.33333V30.6667C8.33333 31.1087 8.50893 31.5326 8.82149 31.8452C9.13405 32.1577 9.55797 32.3333 10 32.3333H13.3333V35.6667C13.3333 36.1087 13.5089 36.5326 13.8215 36.8452C14.134 37.1577 14.558 37.3333 15 37.3333C15.442 37.3333 15.8659 37.1577 16.1785 36.8452C16.4911 36.5326 16.6667 36.1087 16.6667 35.6667V32.3333H20C20.442 32.3333 20.8659 32.1577 21.1785 31.8452C21.4911 31.5326 21.6667 31.1087 21.6667 30.6667V27.3333H26.6667V35.6667C26.6667 36.1087 26.8423 36.5326 27.1548 36.8452C27.4674 37.1577 27.8913 37.3333 28.3333 37.3333C28.7754 37.3333 29.1993 37.1577 29.5118 36.8452C29.8244 36.5326 30 36.1087 30 35.6667V15.6667C30.0001 15.3333 29.9003 15.0076 29.7134 14.7316C29.5265 14.4556 29.2612 14.242 28.9517 14.1183L21.6667 11.205V9.23499C21.6687 7.86245 21.3308 6.51077 20.6831 5.30064C20.0355 4.09051 19.0982 3.05961 17.955 2.3L15.925 0.946662C15.6511 0.76393 15.3292 0.666412 15 0.666412C14.6708 0.666412 14.3489 0.76393 14.075 0.946662L12.045 2.3C10.9018 3.05961 9.96455 4.09051 9.31688 5.30064C8.66921 6.51077 8.3313 7.86245 8.33333 9.23499V11.205L1.04833 14.1183C0.7388 14.242 0.473457 14.4556 0.28658 14.7316C0.0997026 15.0076 -0.000122252 15.3333 1.12361e-07 15.6667V35.6667C1.12361e-07 36.1087 0.175595 36.5326 0.488155 36.8452C0.800716 37.1577 1.22464 37.3333 1.66667 37.3333ZM21.6667 14.795L26.6667 16.795V24H21.6667V14.795ZM11.6667 12.3667V9.23499C11.6643 8.41051 11.8665 7.59831 12.2551 6.87114C12.6437 6.14397 13.2066 5.52454 13.8933 5.06833L15 4.33333L16.1067 5.07166C16.793 5.52756 17.3556 6.14646 17.7441 6.873C18.1327 7.59954 18.3351 8.41107 18.3333 9.23499V29H16.6667V25.6667C16.6667 25.2246 16.4911 24.8007 16.1785 24.4882C15.8659 24.1756 15.442 24 15 24C14.558 24 14.134 24.1756 13.8215 24.4882C13.5089 24.8007 13.3333 25.2246 13.3333 25.6667V29H11.6667V12.3667ZM3.33333 16.795L8.33333 14.795V24H3.33333V16.795Z" fill="#757575"/>
</svg>
