<svg width="20" height="20" viewBox="0 0 20 20" fill="none" xmlns="http://www.w3.org/2000/svg">
<path d="M20 2.5C20 2.76522 19.8946 3.01957 19.7071 3.20711C19.5196 3.39464 19.2652 3.5 19 3.5H10C9.73479 3.5 9.48043 3.39464 9.2929 3.20711C9.10536 3.01957 9 2.76522 9 2.5C9 2.23478 9.10536 1.98043 9.2929 1.79289C9.48043 1.60536 9.73479 1.5 10 1.5H19C19.2652 1.5 19.5196 1.60536 19.7071 1.79289C19.8946 1.98043 20 2.23478 20 2.5ZM19 6.5H12C11.7348 6.5 11.4804 6.60536 11.2929 6.79289C11.1054 6.98043 11 7.23478 11 7.5C11 7.76522 11.1054 8.01957 11.2929 8.20711C11.4804 8.39464 11.7348 8.5 12 8.5H19C19.2652 8.5 19.5196 8.39464 19.7071 8.20711C19.8946 8.01957 20 7.76522 20 7.5C20 7.23478 19.8946 6.98043 19.7071 6.79289C19.5196 6.60536 19.2652 6.5 19 6.5ZM19 11.5H14C13.7348 11.5 13.4804 11.6054 13.2929 11.7929C13.1054 11.9804 13 12.2348 13 12.5C13 12.7652 13.1054 13.0196 13.2929 13.2071C13.4804 13.3946 13.7348 13.5 14 13.5H19C19.2652 13.5 19.5196 13.3946 19.7071 13.2071C19.8946 13.0196 20 12.7652 20 12.5C20 12.2348 19.8946 11.9804 19.7071 11.7929C19.5196 11.6054 19.2652 11.5 19 11.5ZM19 16.5H16C15.7348 16.5 15.4804 16.6054 15.2929 16.7929C15.1054 16.9804 15 17.2348 15 17.5C15 17.7652 15.1054 18.0196 15.2929 18.2071C15.4804 18.3946 15.7348 18.5 16 18.5H19C19.2652 18.5 19.5196 18.3946 19.7071 18.2071C19.8946 18.0196 20 17.7652 20 17.5C20 17.2348 19.8946 16.9804 19.7071 16.7929C19.5196 16.6054 19.2652 16.5 19 16.5ZM4 0C3.73479 0 3.48043 0.105357 3.2929 0.292893C3.10536 0.48043 3 0.734784 3 1V16.586L1.707 15.293C1.5184 15.1108 1.2658 15.01 1.0036 15.0123C0.741405 15.0146 0.490592 15.1198 0.305184 15.3052C0.119776 15.4906 0.0146072 15.7414 0.0123288 16.0036C0.0100503 16.2658 0.110845 16.5184 0.293003 16.707L3.293 19.707C3.38589 19.8001 3.49625 19.874 3.61774 19.9244C3.73923 19.9748 3.86947 20.0008 4.001 20.0008C4.13254 20.0008 4.26278 19.9748 4.38427 19.9244C4.50576 19.874 4.61611 19.8001 4.709 19.707L7.709 16.707C7.89116 16.5184 7.99195 16.2658 7.98968 16.0036C7.9874 15.7414 7.88223 15.4906 7.69682 15.3052C7.51141 15.1198 7.2606 15.0146 6.9984 15.0123C6.73621 15.01 6.4836 15.1108 6.295 15.293L5 16.586V1C5 0.734784 4.89465 0.48043 4.70711 0.292893C4.51957 0.105357 4.26522 0 4 0Z" fill="#009688"/>
</svg>
