<svg width="24" height="24" viewBox="0 0 24 24" fill="none" xmlns="http://www.w3.org/2000/svg">
<path d="M22 10C22.1978 9.99996 22.391 9.94129 22.5555 9.8314C22.7199 9.72152 22.848 9.56535 22.9237 9.38265C22.9993 9.19995 23.0192 8.99892 22.9806 8.80497C22.942 8.61102 22.8468 8.43285 22.707 8.293L19.907 5.493L18.974 1.763C18.9208 1.54497 18.7958 1.35118 18.6192 1.21278C18.4425 1.07439 18.2244 0.999441 18 0.999999H6C5.77694 1.00006 5.5603 1.0747 5.38454 1.21205C5.20878 1.3494 5.08398 1.54157 5.03 1.758L4.1 5.488L1.3 8.288C1.15889 8.42716 1.06231 8.60512 1.02253 8.79927C0.982748 8.99342 1.00155 9.19502 1.07656 9.37847C1.15157 9.56191 1.27939 9.71893 1.44381 9.82959C1.60822 9.94026 1.80181 9.99957 2 10H4V18H3C2.73478 18 2.48043 18.1054 2.29289 18.2929C2.10536 18.4804 2 18.7348 2 19C2 19.2652 2.10536 19.5196 2.29289 19.7071C2.48043 19.8946 2.73478 20 3 20H21C21.2652 20 21.5196 19.8946 21.7071 19.7071C21.8946 19.5196 22 19.2652 22 19C22 18.7348 21.8946 18.4804 21.7071 18.2929C21.5196 18.1054 21.2652 18 21 18H20V10H22ZM5.707 6.707C5.83521 6.57872 5.92612 6.41798 5.97 6.242L6.781 3H17.219L18.03 6.242C18.0739 6.41798 18.1648 6.57872 18.293 6.707L19.586 8H4.414L5.707 6.707ZM15 10V18H9V10H15ZM6 10H7V18H6V10ZM18 18H17V10H18V18ZM23 22C23 22.2652 22.8946 22.5196 22.7071 22.7071C22.5196 22.8946 22.2652 23 22 23H2C1.73478 23 1.48043 22.8946 1.29289 22.7071C1.10536 22.5196 1 22.2652 1 22C1 21.7348 1.10536 21.4804 1.29289 21.2929C1.48043 21.1054 1.73478 21 2 21H22C22.2652 21 22.5196 21.1054 22.7071 21.2929C22.8946 21.4804 23 21.7348 23 22Z" fill="#616161"/>
</svg>
