<svg width="18" height="18" viewBox="0 0 18 18" fill="#009688" xmlns="http://www.w3.org/2000/svg">
<path fill-rule="evenodd" clip-rule="evenodd" d="M12.5938 11H11.7975L11.5207 10.726C12.4986 9.589 13.0933 8.115 13.0933 6.5C13.0933 2.91 10.1748 -1.90735e-06 6.57434 -1.90735e-06C2.97387 -1.90735e-06 0.0553894 2.91 0.0553894 6.5C0.0553894 10.09 2.97387 13 6.57434 13C8.19405 13 9.67134 12.408 10.8117 11.434L11.0885 11.708V12.5L16.101 17.491L17.5964 16L12.5938 11ZM6.57429 11C4.08104 11 2.06117 8.986 2.06117 6.5C2.06117 4.015 4.08104 2 6.57429 2C9.06653 2 11.0874 4.015 11.0874 6.5C11.0874 8.986 9.06653 11 6.57429 11Z"/>
</svg>
